<?xml version="1.0" standalone="no"?>
<!DOCTYPE svg PUBLIC "-//W3C//DTD SVG 1.1//EN" "http://www.w3.org/Graphics/SVG/1.1/DTD/svg11.dtd">
<!--Generator: Xara Designer (www.xara.com), SVG filter version: 6.6.0.7-->
<svg fill="none" fill-rule="evenodd" stroke="black" stroke-width="0.501" stroke-linejoin="bevel" stroke-miterlimit="10" font-family="Times New Roman" font-size="16" style="font-variant-ligatures:none" xmlns:xlink="http://www.w3.org/1999/xlink" xmlns="http://www.w3.org/2000/svg" version="1.1" overflow="visible" width="311.812pt" height="311.812pt" viewBox="0 -311.812 311.812 311.812">
 <defs>
	</defs>
 <g id="Layer 1" transform="scale(1 -1)">
  <g id="Group" fill="#000140" stroke-linejoin="round" stroke-linecap="round" stroke="none">
   <g id="Group_1" fill-rule="nonzero" stroke-width="8.957">
    <g id="Group_2">
     <path d="M 278.469,43.405 C 267.62,31.036 260.156,23.043 256.075,19.431 C 245.574,9.979 236.128,5.258 227.727,5.258 C 217.813,5.258 200.722,15.291 176.46,35.351 C 149.635,57.632 131.321,70.986 121.521,75.419 C 118.137,76.932 114.818,77.694 111.553,77.694 C 102.455,77.694 90.321,69.996 75.157,54.601 L 75.157,65.447 C 80.642,73.145 86.474,79.621 92.655,84.871 C 73.759,92.684 59.062,105.34 48.561,122.835 C 38.412,139.63 33.338,158.528 33.342,179.525 C 33.338,225.252 54.567,261.648 97.03,288.707 C 115.808,300.606 136.92,306.554 160.364,306.554 C 200.374,306.554 230.99,290.164 252.223,257.387 C 262.37,241.522 267.447,222.684 267.447,200.871 C 267.447,170.895 257.647,144.125 238.049,120.559 C 218.455,96.999 193.904,82.244 164.392,76.296 C 173.026,74.195 185.911,66.028 203.057,51.799 C 220.202,37.567 232.917,30.455 241.199,30.455 C 249.48,30.455 261.903,38.502 278.469,54.601 L 278.469,43.405 Z M 238.749,170.95 C 238.749,191.947 234.087,211.895 224.756,230.791 C 214.842,250.739 201.31,265.957 184.16,276.458 C 167.95,286.372 152.377,291.33 137.446,291.33 C 114.818,291.33 96.442,282.994 82.329,266.311 C 69.031,250.564 62.386,231.2 62.386,208.221 C 62.386,164.361 79.183,130.299 112.777,106.038 C 128.29,94.84 145.435,89.241 164.217,89.241 C 186.26,89.241 204.341,97.468 218.455,113.916 C 231.986,129.548 238.749,148.559 238.749,170.95 Z" marker-start="none" marker-end="none"/>
    </g>
   </g>
   <text xml:space="preserve" transform="translate(67.649 85.989) scale(1 -1)" kerning="0" style="-moz-font-feature-settings:'liga' on;-ms-font-feature-settings:'liga' on;-webkit-font-feature-settings:'liga' on;font-feature-settings:'liga' on;font-variant-ligatures: common-ligatures no-discretionary-ligatures no-historical-ligatures" font-size="363.393" font-family="Andalus" stroke-width="9.085"><tspan x="0" y="0">e</tspan></text>
  </g>
 </g>
</svg>
